<?xml version="1.0" encoding="UTF-8"?>
<svg id="Livello_1" data-name="Livello 1" xmlns="http://www.w3.org/2000/svg" viewBox="0 0 788.64 564.62">
  <defs>
    <style>
      .cls-1 {
        fill: #00a8ab;
        stroke: #00a8ab;
        stroke-miterlimit: 10;
      }
    </style>
  </defs>
  <path class="cls-1" d="M587.54,489.5c-82.86,0-147-43.17-195.54-131.23l-.5-.94-27.9-58.39c-61.99-117.95-132.22-126.3-186.58-120.38-41.51,4.54-77.21,26.68-97.91,60.83-30.99,51.09-38.91,102.17-40.9,127.8h276.02c10.29,0,18.65,8.36,18.65,18.65s-8.36,18.65-18.65,18.65H30.52c-8.14,0-16.05-3.38-21.7-9.24-5.65-5.87-8.63-13.89-8.3-22.03,1.05-24.63,7.8-88.89,46.71-153.04,26.79-44.11,72.62-72.73,125.75-78.54,60.94-6.64,150.49.72,223.77,140.42l.33.61,27.84,58.23c60.99,110.31,135.71,115.73,186.63,110.14,41.51-4.54,77.21-26.68,97.91-60.83,32.27-53.19,39.57-115.57,41.12-146.28h-276.24c-10.29,0-18.65-8.36-18.65-18.65s8.36-18.65,18.65-18.65h283.77c8.19,0,15.83,3.21,21.53,9.08,5.7,5.87,8.75,13.62,8.47,21.81-.83,29.89-7.03,106.43-46.82,171.97-26.73,44.11-72.56,72.73-125.75,78.54-9.57,1.05-18.93,1.55-28.01,1.55v-.06Z"/>
  <path class="cls-1" d="M201.38,86.29c20.88,0,37.8-16.92,37.8-37.8s-16.92-37.8-37.8-37.8-37.8,16.92-37.8,37.8,16.92,37.8,37.8,37.8Z"/>
  <path class="cls-1" d="M201.38,96.42c-26.46,0-47.99-21.53-47.99-47.99S174.98.5,201.38.5s47.99,21.53,47.99,47.99-21.53,47.99-47.99,47.99v-.06ZM201.38,20.81c-15.22,0-27.62,12.4-27.62,27.62s12.4,27.62,27.62,27.62,27.62-12.4,27.62-27.62-12.4-27.62-27.62-27.62Z"/>
  <path class="cls-1" d="M594.36,365.87c17.18,0,31.11-13.93,31.11-31.1s-13.93-31.11-31.11-31.11-31.1,13.93-31.1,31.11,13.93,31.1,31.1,31.1Z"/>
  <path class="cls-1" d="M594.35,374.21c-21.75,0-39.46-17.71-39.46-39.46s17.71-39.46,39.46-39.46,39.46,17.71,39.46,39.46-17.71,39.46-39.46,39.46ZM594.35,312.06c-12.56,0-22.75,10.18-22.75,22.75s10.18,22.75,22.75,22.75,22.75-10.18,22.75-22.75-10.18-22.75-22.75-22.75Z"/>
  <path class="cls-1" d="M509.99,107.84c3.3.83,5.89,2.51,7.77,5.07,1.95,2.55,2.93,5.82,2.93,9.8v21.05c0,5.63-1.8,10.1-5.4,13.4-3.53,3.3-8.52,4.95-14.97,4.95h-25.44V55.71h25.89c5.78,0,10.36,1.46,13.74,4.39,3.38,2.93,5.07,6.94,5.07,12.05v20.49c0,7.88-3.19,12.72-9.57,14.52v.68ZM497.39,70.23h-4.95v30.85h4.95c3.3,0,4.95-1.76,4.95-5.29v-20.26c0-3.53-1.65-5.29-4.95-5.29ZM497.05,114.37h-4.62v33.21h4.5c4.13,0,6.19-2.1,6.19-6.3v-20.83c0-4.05-2.03-6.08-6.08-6.08ZM545.65,147.13h18.69v14.97h-36.25V55.71h36.03v14.97h-18.46v29.5h17.11v14.52h-17.11v32.42ZM594.8,102.54l1.8-13.62,4.73-33.21h19.03l-17.68,78.13v28.26h-17.56v-28.37l-17.79-78.02h19.48l4.95,33.21,1.8,13.62h1.24ZM644.04,54.81c7.58,0,13.32,2.06,17.23,6.19,3.98,4.13,5.97,10.17,5.97,18.13v59.56c0,8.03-1.99,14.11-5.97,18.24-3.9,4.13-9.64,6.19-17.23,6.19s-13.14-2.06-17.11-6.19c-3.9-4.13-5.85-10.21-5.85-18.24v-59.56c0-7.96,1.95-14,5.85-18.13,3.98-4.13,9.68-6.19,17.11-6.19ZM649.33,142.17v-66.54c0-1.88-.49-3.38-1.46-4.5-.9-1.13-2.14-1.69-3.71-1.69s-2.85.56-3.83,1.69c-.9,1.13-1.35,2.63-1.35,4.5v66.54c0,1.88.45,3.38,1.35,4.5.98,1.13,2.25,1.69,3.83,1.69s2.81-.56,3.71-1.69c.98-1.13,1.46-2.63,1.46-4.5ZM706.46,113.46l-1.13-28.6v-29.16h16.55v106.39h-17l-12.38-62.26h-1.01l1.13,27.92v34.34h-16.55V55.71h18.01l11.48,57.75h.9ZM755.23,55.71c6.76,0,12.01,1.91,15.76,5.74,3.83,3.75,5.74,9.34,5.74,16.77v61.58c0,7.28-1.91,12.83-5.74,16.66-3.83,3.75-9.08,5.63-15.76,5.63h-23.64V55.71h23.64ZM758.95,140.93v-64.06c0-1.95-.49-3.45-1.46-4.5-.9-1.13-2.14-1.69-3.72-1.69h-4.62v76.44h4.5c1.65,0,2.93-.52,3.83-1.58.98-1.13,1.46-2.67,1.46-4.62Z"/>
  <path class="cls-1" d="M44.31,472.46h-17.43v29.22h16.05v14.5h-16.05v46.88H9.49v-105.49h34.81v14.89Z"/>
  <path class="cls-1" d="M67.27,548.23h16.71v14.83h-34.15v-105.49h17.43v90.66Z"/>
  <path class="cls-1" d="M117.47,563.07l-1.77-22.53-12.29-.11-1.77,22.64h-17.99l12.51-105.49h27.23l12.29,105.49h-18.21ZM104.68,526.15h9.96l-2.77-36.7-1.55-15.61h-1.22l-1.44,15.61-2.93,36.7h-.06Z"/>
  <path class="cls-1" d="M165.75,457.57h17.99l-11.73,105.49h-26.57l-11.84-105.49h18.1l4.7,62.93,1.99,21.09h1.22l1.77-21.09,4.37-62.93Z"/>
  <path class="cls-1" d="M209.34,456.68c7.53,0,13.23,2.05,17.16,6.14,3.93,4.1,5.87,10.07,5.87,17.99v59.06c0,7.97-1.94,14-5.87,18.1-3.93,4.1-9.63,6.14-17.16,6.14s-13.01-2.05-16.94-6.14c-3.93-4.1-5.87-10.13-5.87-18.1v-59.06c0-7.86,1.94-13.89,5.87-17.99,3.93-4.09,9.52-6.14,16.94-6.14ZM214.6,543.3v-65.97c0-1.88-.44-3.32-1.38-4.48-.94-1.16-2.16-1.66-3.76-1.66s-2.82.55-3.76,1.66c-.94,1.11-1.38,2.6-1.38,4.48v65.97c0,1.88.44,3.32,1.38,4.48.94,1.11,2.16,1.66,3.76,1.66s2.82-.55,3.76-1.66c.94-1.11,1.38-2.6,1.38-4.48Z"/>
  <path class="cls-1" d="M285.17,457.57v86.73c0,6.48-1.94,11.4-5.81,14.72s-9.35,5.04-16.49,5.04-12.62-1.66-16.33-4.98c-3.76-3.32-5.65-8.19-5.65-14.56v-86.95h17.43v86.18c0,3.82,1.55,5.7,4.7,5.7s4.82-1.88,4.82-5.7v-86.18h17.43-.11Z"/>
  <path class="cls-1" d="M341.2,563.07h-17.77l-4.59-37.97h-6.81v37.97h-17.44v-105.49h23.63c6.86,0,12.12,1.77,15.72,5.31,3.65,3.54,5.48,8.63,5.48,15.33v24.24c0,6.25-1.83,11.29-5.48,15.05l7.14,45.55h.11ZM312.14,511.15h3.27c4.26,0,6.36-2.66,6.36-7.91v-23.3c0-4.98-2.1-7.47-6.36-7.47h-3.27v38.74-.06Z"/>
</svg>